<svg xmlns="http://www.w3.org/2000/svg" xmlns:xlink="http://www.w3.org/1999/xlink" width="133" height="133" viewBox="0 0 133 133">
    <defs>
        <rect id="b" width="127" height="127" rx="63.5"/>
        <filter id="a" width="107.9%" height="107.9%" x="-3.9%" y="-3.1%" filterUnits="objectBoundingBox">
            <feOffset dy="1" in="SourceAlpha" result="shadowOffsetOuter1"/>
            <feGaussianBlur in="shadowOffsetOuter1" result="shadowBlurOuter1" stdDeviation="1.5"/>
            <feColorMatrix in="shadowBlurOuter1" values="0 0 0 0 0 0 0 0 0 0 0 0 0 0 0 0 0 0 0.29 0"/>
        </filter>
    </defs>
    <g fill="none" fill-rule="evenodd">
        <g transform="translate(3 2)">
            <use fill="#000" filter="url(#a)" xlink:href="#b"/>
            <use fill="#FF8E1A" xlink:href="#b"/>
        </g>
        <path d="M37 36h60v60H37z"/>
        <path fill="#FFF" fill-rule="nonzero" d="M39.5 88.5h10v-30h-10v30zm55-27.5c0-2.75-2.25-5-5-5H73.725L76.1 44.575l.075-.8a3.763 3.763 0 0 0-1.1-2.65l-2.65-2.625-16.45 16.475A4.888 4.888 0 0 0 54.5 58.5v25c0 2.75 2.25 5 5 5H82c2.075 0 3.85-1.25 4.6-3.05l7.55-17.625A4.94 4.94 0 0 0 94.5 66v-4.775l-.025-.025.025-.2z"/>
    </g>
</svg>
