<svg xmlns="http://www.w3.org/2000/svg" xmlns:xlink="http://www.w3.org/1999/xlink" width="133" height="133" viewBox="0 0 133 133">
    <defs>
        <rect id="b" width="127" height="127" rx="63.5"/>
        <filter id="a" width="107.9%" height="107.9%" x="-3.9%" y="-3.1%" filterUnits="objectBoundingBox">
            <feOffset dy="1" in="SourceAlpha" result="shadowOffsetOuter1"/>
            <feGaussianBlur in="shadowOffsetOuter1" result="shadowBlurOuter1" stdDeviation="1.5"/>
            <feColorMatrix in="shadowBlurOuter1" values="0 0 0 0 0 0 0 0 0 0 0 0 0 0 0 0 0 0 0.29 0"/>
        </filter>
        <path id="c" d="M0 0h64v64H0z"/>
    </defs>
    <g fill="none" fill-rule="evenodd">
        <g transform="translate(3 2)">
            <use fill="#000" filter="url(#a)" xlink:href="#b"/>
            <use fill="#4CDAF0" xlink:href="#b"/>
        </g>
        <g transform="translate(35 34)">
            <mask id="d" fill="#fff">
                <use xlink:href="#c"/>
            </mask>
            <path fill="#FFF" fill-rule="nonzero" d="M56 13.333C53.04 12.4 49.787 12 46.667 12c-5.2 0-10.8 1.067-14.667 4-3.867-2.933-9.467-4-14.667-4-5.2 0-10.8 1.067-14.666 4v39.067c0 .666.666 1.333 1.333 1.333.267 0 .4-.133.667-.133 3.6-1.734 8.8-2.934 12.666-2.934 5.2 0 10.8 1.067 14.667 4 3.6-2.266 10.133-4 14.667-4 4.4 0 8.933.8 12.666 2.8.267.134.4.134.667.134.667 0 1.333-.667 1.333-1.334V16C59.733 14.8 58 14 56 13.333zm0 36C53.067 48.4 49.867 48 46.667 48 42.133 48 35.6 49.733 32 52V21.333c3.6-2.266 10.133-4 14.667-4 3.2 0 6.4.4 9.333 1.334v30.666z" mask="url(#d)"/>
        </g>
    </g>
</svg>
